<svg viewBox="0 0 24 24" xmlns="http://www.w3.org/2000/svg" fill="currentColor">
    <path fill-rule="evenodd" clip-rule="evenodd" d="M0 12C0 5.373 5.373 0 12 0C18.627 0 24 5.373 24 12C24 18.627 18.627 24 12 24C5.373 24 0 18.627 0 12ZM14.4404 3H15.8388C16.0092 3 16.021 3.12946 15.9807 3.25251C15.9745 3.27145 15.8618 3.60579 15.6774 4.15292C14.883 6.51031 12.7574 12.818 12.0833 14.8689V20.8252C12.0833 20.9347 12.023 21 11.943 21H10.6498C10.5495 21 10.5092 20.9347 10.5092 20.8252V14.8218C9.78788 12.8451 8.29621 8.55336 7.51456 6.30447C7.21651 5.44692 7.02169 4.88641 7.01219 4.86455C6.96894 4.76541 7.04463 4.60598 7.17831 4.60598H8.54363C8.72482 4.60598 8.77201 4.74615 8.79953 4.85849C8.8244 4.96208 9.26801 6.32594 9.723 7.7248C10.1672 9.09034 10.6222 10.4892 10.7091 10.7817L11.4322 12.9326L11.4354 12.9196C11.5245 12.5526 11.8667 11.1444 11.9725 10.741C12.0591 10.412 12.7774 8.00858 13.3792 5.995C13.8288 4.4904 14.2134 3.20346 14.2208 3.16227C14.2392 3.06634 14.3165 3 14.4404 3Z"/>
</svg>
